<svg width="25" height="24" viewBox="0 0 25 24" fill="none" xmlns="http://www.w3.org/2000/svg">
<g clip-path="url(#clip0_197:1001)">
<path fill-rule="evenodd" clip-rule="evenodd" d="M12.9745 3.93249C15.602 3.93249 15.9132 3.94253 16.9509 3.98987C17.9103 4.03366 18.4314 4.19393 18.7782 4.3287C19.2375 4.50721 19.5653 4.72046 19.9096 5.06483C20.254 5.40917 20.4673 5.73702 20.6458 6.19632C20.7805 6.54307 20.9409 7.06413 20.9846 8.02358C21.0319 9.06128 21.042 9.37249 21.042 12.0001C21.042 14.6276 21.0319 14.9389 20.9846 15.9765C20.9408 16.936 20.7805 17.457 20.6458 17.8038C20.4673 18.2631 20.254 18.5909 19.9096 18.9353C19.5653 19.2796 19.2375 19.4929 18.7782 19.6714C18.4314 19.8062 17.9103 19.9665 16.9509 20.0102C15.9134 20.0576 15.6022 20.0676 12.9745 20.0676C10.3467 20.0676 10.0355 20.0576 8.99801 20.0102C8.03855 19.9664 7.5175 19.8061 7.17074 19.6714C6.71141 19.4929 6.38359 19.2796 6.03926 18.9353C5.69492 18.5909 5.48164 18.2631 5.30312 17.8038C5.16836 17.457 5.00805 16.936 4.9643 15.9765C4.91695 14.9389 4.90691 14.6276 4.90691 12C4.90691 9.37245 4.91695 9.06124 4.9643 8.02358C5.00809 7.06413 5.16836 6.54307 5.30312 6.19632C5.48164 5.73698 5.69488 5.40917 6.03926 5.06483C6.38359 4.7205 6.71145 4.50721 7.17074 4.3287C7.5175 4.19393 8.03855 4.03362 8.99801 3.98987C10.0357 3.94249 10.3469 3.93249 12.9745 3.93249ZM12.9745 2.15936C10.3019 2.15936 9.96676 2.17069 8.91719 2.21858C7.86973 2.26639 7.15441 2.43272 6.52848 2.676C5.88137 2.92749 5.33258 3.26397 4.78551 3.81104C4.23844 4.35811 3.90195 4.90694 3.65047 5.55401C3.40719 6.17999 3.24086 6.8953 3.19305 7.94272C3.14512 8.99233 3.13379 9.32745 3.13379 12C3.13379 14.6726 3.14512 15.0077 3.19301 16.0573C3.24082 17.1048 3.40715 17.8201 3.65043 18.446C3.90191 19.0931 4.2384 19.6419 4.78547 20.189C5.33254 20.736 5.88137 21.0725 6.52844 21.324C7.15441 21.5673 7.86973 21.7336 8.91715 21.7814C9.96676 21.8293 10.3019 21.8407 12.9744 21.8407C15.647 21.8407 15.9821 21.8293 17.0317 21.7814C18.0791 21.7336 18.7945 21.5673 19.4204 21.324C20.0675 21.0725 20.6163 20.736 21.1634 20.189C21.7104 19.6419 22.0469 19.0931 22.2984 18.446C22.5417 17.82 22.708 17.1047 22.7558 16.0573C22.8037 15.0077 22.815 14.6726 22.815 12C22.815 9.32749 22.8037 8.99233 22.7558 7.94276C22.708 6.8953 22.5417 6.17999 22.2984 5.55405C22.0469 4.90694 21.7104 4.35815 21.1634 3.81108C20.6163 3.26401 20.0675 2.92753 19.4204 2.67604C18.7944 2.43276 18.0791 2.26643 17.0317 2.21862C15.9821 2.17069 15.647 2.15936 12.9745 2.15936ZM12.9745 6.9467C10.1836 6.9467 7.92115 9.20913 7.92115 12C7.92115 14.7909 10.1836 17.0533 12.9745 17.0533C15.7653 17.0533 18.0278 14.7909 18.0278 12C18.0278 9.20917 15.7653 6.9467 12.9745 6.9467ZM12.9745 15.2802C11.1629 15.2802 9.69423 13.8116 9.69423 12C9.69423 10.1884 11.1628 8.71979 12.9745 8.71979C14.7861 8.71979 16.2547 10.1884 16.2547 12C16.2547 13.8117 14.7861 15.2802 12.9745 15.2802ZM19.4083 6.74706C19.4083 7.39923 18.8796 7.92792 18.2274 7.92792C17.5753 7.92792 17.0466 7.39923 17.0466 6.74706C17.0466 6.09488 17.5753 5.5662 18.2274 5.5662C18.8796 5.5662 19.4083 6.09488 19.4083 6.74706Z" fill="white"/>
</g>
<defs>
<clipPath id="clip0_197:1001">
<rect width="20" height="20" fill="white" transform="translate(2.97461 2)"/>
</clipPath>
</defs>
</svg>
