<svg width="24" height="24" viewBox="0 0 24 24" fill="none" xmlns="http://www.w3.org/2000/svg">
<g clip-path="url(#clip0_197:1007)">
<path d="M19.899 7.91023C19.9109 8.08491 19.9109 8.26039 19.9109 8.4366C19.9109 13.8183 15.8139 20.0241 8.32339 20.0241V20.021C6.11049 20.0239 3.94347 19.3899 2.08105 18.1947C2.40275 18.2332 2.72646 18.2529 3.05049 18.2535C4.88468 18.2554 6.66614 17.6401 8.10823 16.5068C6.36589 16.474 4.83694 15.3376 4.30339 13.6785C4.91364 13.7961 5.54275 13.7722 6.14226 13.6087C4.24202 13.2248 2.87549 11.5551 2.87501 9.61652C2.87501 9.59902 2.87501 9.5816 2.87501 9.56491C3.44138 9.88063 4.07533 10.0555 4.72339 10.0747C2.93372 8.87958 2.38154 6.49902 3.46251 4.63821C5.53041 7.18241 8.5813 8.72902 11.8558 8.89321C11.5275 7.47894 11.9763 5.99676 13.034 5.00208C14.674 3.45974 17.2537 3.53894 18.7961 5.17894C19.7081 4.9991 20.5827 4.66483 21.3821 4.19039C21.0781 5.13345 20.4418 5.93402 19.5916 6.44297C20.399 6.34757 21.1874 6.1316 21.9307 5.80224C21.384 6.61991 20.696 7.3337 19.899 7.91023Z" fill="white"/>
</g>
<defs>
<clipPath id="clip0_197:1007">
<rect width="20" height="16.4516" fill="white" transform="translate(2 3.77417)"/>
</clipPath>
</defs>
</svg>
