<svg width="50" height="50" viewBox="0 0 50 50" fill="none" xmlns="http://www.w3.org/2000/svg">
<mask id="path-1-inside-1_297:1079" fill="white">
<path fill-rule="evenodd" clip-rule="evenodd" d="M25 49C38.2548 49 49 38.2548 49 25C49 11.7452 38.2548 1 25 0.999999L1 0.999998L0.999999 25L0.999998 49L25 49Z"/>
</mask>
<path d="M1 0.999998L1 -2L-2 -2L-2 0.999998L1 0.999998ZM0.999999 25L4 25L0.999999 25ZM0.999998 49L-2 49L-2 52L0.999998 52L0.999998 49ZM46 25C46 36.598 36.598 46 25 46L25 52C39.9117 52 52 39.9117 52 25L46 25ZM25 4C36.598 4 46 13.402 46 25L52 25C52 10.0883 39.9117 -2 25 -2L25 4ZM1 4L25 4L25 -2L1 -2L1 4ZM4 25L4 0.999998L-2 0.999998L-2 25L4 25ZM4 49L4 25L-2 25L-2 49L4 49ZM25 46L0.999998 46L0.999998 52L25 52L25 46Z" fill="#DE5348" mask="url(#path-1-inside-1_297:1079)"/>
<path fill-rule="evenodd" clip-rule="evenodd" d="M38 25L20.0652 10L13 10L30.9348 25L13 40L20.0652 40L38 25Z" fill="#DE5348"/>
</svg>
