<svg xmlns="http://www.w3.org/2000/svg" width="1200" height="198" viewBox="0 0 1200 198"><defs><style>.cls-1{fill:#fff;}.cls-2{fill:none;stroke:#000;stroke-linecap:round;stroke-linejoin:round;stroke-width:0;}.cls-3{fill:#111;}</style></defs><g id="Layer_2" data-name="Layer 2"><g id="Layer_1-2" data-name="Layer 1"><rect class="cls-1" width="1200" height="198"/><path d="M578.732,70.665h11.2a.829.829,0,0,0,.263,0,.811.811,0,0,0-.263-1.6h-11.2a.822.822,0,0,0-.262,0,.811.811,0,0,0,.262,1.6Z"/><path d="M592.448,65.7a.811.811,0,0,0,0-1.6H578.732a.822.822,0,0,0-.262,0,.811.811,0,0,0,.262,1.6Z"/><path d="M594.847,61.507V73.442H584.131a3,3,0,0,0-2.077.835l-1.533,1.471a3,3,0,0,0-2.919-2.306h-1.78V61.507h19.025m.93-3H574.9a2.049,2.049,0,0,0-1.462.613l-.048.048a2.061,2.061,0,0,0-.565,1.414v13.79a2.075,2.075,0,0,0,2.075,2.07h2.7v4.369a.808.808,0,0,0,1.4.55l5.126-4.919h11.646a2.075,2.075,0,0,0,2.07-2.07V60.582a2.075,2.075,0,0,0-2.07-2.075Z"/><path d="M619.936,127.665h-11.2a.822.822,0,0,1-.262,0,.811.811,0,0,1,.262-1.6h11.2a.822.822,0,0,1,.262,0,.811.811,0,0,1-.262,1.6Z"/><path d="M606.22,122.7a.811.811,0,0,1,0-1.6h13.716a.822.822,0,0,1,.262,0,.811.811,0,1,1-.262,1.6Z"/><path d="M622.847,118.507v11.935h-1.78a3,3,0,0,0-2.92,2.306l-1.533-1.471a3,3,0,0,0-2.077-.835H603.822V118.507h19.025m.924-3H602.892a2.075,2.075,0,0,0-2.07,2.075v13.79a2.075,2.075,0,0,0,2.07,2.07h11.645l5.127,4.919a.808.808,0,0,0,1.4-.55v-4.369h2.7a2.076,2.076,0,0,0,2.076-2.07v-13.79a2.067,2.067,0,0,0-.566-1.414l-.048-.048a2.049,2.049,0,0,0-1.462-.613Z"/><polyline class="cls-2" points="621.399 83.647 621.43 83.647 621.399 83.646 621.399 83.647"/><path d="M621.416,83.932a1.451,1.451,0,0,1,1.431,1.417v21.986a1.451,1.451,0,0,1-1.417,1.436H590.649a1.433,1.433,0,0,1-1.427-1.409v-22a1.433,1.433,0,0,1,1.416-1.427h30.778m.014-3H590.638a4.432,4.432,0,0,0-4.416,4.417v22.013a4.432,4.432,0,0,0,4.416,4.409H621.43a4.449,4.449,0,0,0,4.417-4.409V85.349a4.449,4.449,0,0,0-4.417-4.417Z"/><polygon points="618.01 100.725 614.369 91.539 609.035 100.772 609.035 100.78 605.356 94.99 602.461 102.467 599.103 102.467 597.989 98.544 595.785 103.996 593.557 104.114 593.557 105.895 618.01 105.895 618.01 100.725"/><path d="M597.793,89.561a2.421,2.421,0,1,1-.008,0h.008m0-.25h-.008a2.667,2.667,0,0,0-2.667,2.667v.008a2.675,2.675,0,1,0,2.675-2.675Z"/><path class="cls-3" d="M620.94,37.5H579.06A14.56,14.56,0,0,0,564.5,52.06v93.88a14.56,14.56,0,0,0,14.56,14.56h41.88a14.56,14.56,0,0,0,14.56-14.56V52.06A14.56,14.56,0,0,0,620.94,37.5ZM600,157.42a5.461,5.461,0,0,1-5.46-5.46v-.01a5.45,5.45,0,0,1,5.45-5.45H600a5.46,5.46,0,1,1,0,10.92Zm30.5-14.92h-61v-91h61Z"/></g></g></svg>