<svg width="25" height="24" viewBox="0 0 25 24" fill="none" xmlns="http://www.w3.org/2000/svg">
<path fill-rule="evenodd" clip-rule="evenodd" d="M12.9745 3.93243C15.602 3.93243 15.9132 3.94247 16.9509 3.98981C17.9103 4.0336 18.4314 4.19387 18.7782 4.32864C19.2375 4.50715 19.5653 4.7204 19.9096 5.06477C20.254 5.40911 20.4673 5.73696 20.6458 6.19626C20.7805 6.54301 20.9409 7.06407 20.9846 8.02352C21.0319 9.06122 21.042 9.37243 21.042 12C21.042 14.6275 21.0319 14.9388 20.9846 15.9764C20.9408 16.9359 20.7805 17.4569 20.6458 17.8037C20.4673 18.263 20.254 18.5908 19.9096 18.9352C19.5653 19.2795 19.2375 19.4928 18.7782 19.6713C18.4314 19.8061 17.9103 19.9664 16.9509 20.0101C15.9134 20.0575 15.6022 20.0675 12.9745 20.0675C10.3467 20.0675 10.0355 20.0575 8.99801 20.0101C8.03855 19.9663 7.5175 19.806 7.17074 19.6713C6.71141 19.4928 6.38359 19.2795 6.03926 18.9352C5.69492 18.5908 5.48164 18.263 5.30312 17.8037C5.16836 17.4569 5.00805 16.9359 4.9643 15.9764C4.91695 14.9388 4.90691 14.6275 4.90691 11.9999C4.90691 9.37239 4.91695 9.06118 4.9643 8.02352C5.00809 7.06407 5.16836 6.54301 5.30312 6.19626C5.48164 5.73692 5.69488 5.40911 6.03926 5.06477C6.38359 4.72044 6.71145 4.50715 7.17074 4.32864C7.5175 4.19387 8.03855 4.03356 8.99801 3.98981C10.0357 3.94243 10.3469 3.93243 12.9745 3.93243ZM12.9745 2.1593C10.3019 2.1593 9.96676 2.17063 8.91719 2.21852C7.86973 2.26633 7.15441 2.43266 6.52848 2.67594C5.88137 2.92743 5.33258 3.26391 4.78551 3.81098C4.23844 4.35805 3.90195 4.90688 3.65047 5.55395C3.40719 6.17993 3.24086 6.89524 3.19305 7.94266C3.14512 8.99227 3.13379 9.32739 3.13379 11.9999C3.13379 14.6725 3.14512 15.0076 3.19301 16.0572C3.24082 17.1047 3.40715 17.82 3.65043 18.4459C3.90191 19.093 4.2384 19.6418 4.78547 20.1889C5.33254 20.7359 5.88137 21.0724 6.52844 21.3239C7.15441 21.5672 7.86973 21.7335 8.91715 21.7813C9.96676 21.8292 10.3019 21.8406 12.9744 21.8406C15.647 21.8406 15.9821 21.8292 17.0317 21.7813C18.0791 21.7335 18.7945 21.5672 19.4204 21.3239C20.0675 21.0724 20.6163 20.7359 21.1634 20.1889C21.7104 19.6418 22.0469 19.093 22.2984 18.4459C22.5417 17.8199 22.708 17.1046 22.7558 16.0572C22.8037 15.0076 22.815 14.6725 22.815 11.9999C22.815 9.32743 22.8037 8.99227 22.7558 7.9427C22.708 6.89524 22.5417 6.17993 22.2984 5.55399C22.0469 4.90688 21.7104 4.35809 21.1634 3.81102C20.6163 3.26395 20.0675 2.92747 19.4204 2.67598C18.7944 2.4327 18.0791 2.26637 17.0317 2.21856C15.9821 2.17063 15.647 2.1593 12.9745 2.1593ZM12.9745 6.94664C10.1836 6.94664 7.92115 9.20907 7.92115 11.9999C7.92115 14.7908 10.1836 17.0532 12.9745 17.0532C15.7653 17.0532 18.0278 14.7908 18.0278 11.9999C18.0278 9.20911 15.7653 6.94664 12.9745 6.94664ZM12.9745 15.2801C11.1629 15.2801 9.69423 13.8115 9.69423 11.9999C9.69423 10.1883 11.1628 8.71973 12.9745 8.71973C14.7861 8.71973 16.2547 10.1883 16.2547 11.9999C16.2547 13.8116 14.7861 15.2801 12.9745 15.2801ZM19.4083 6.747C19.4083 7.39917 18.8796 7.92786 18.2274 7.92786C17.5753 7.92786 17.0466 7.39917 17.0466 6.747C17.0466 6.09482 17.5753 5.56614 18.2274 5.56614C18.8796 5.56614 19.4083 6.09482 19.4083 6.747Z" fill="#BEBAB3"/>
</svg>
