<svg width="25" height="24" viewBox="0 0 25 24" fill="none" xmlns="http://www.w3.org/2000/svg">
<g clip-path="url(#clip0_197:995)">
<path fill-rule="evenodd" clip-rule="evenodd" d="M2.94922 4.55859L12.9492 11.1808L22.9492 4.55859H2.94922ZM2.94922 18.1373V5.52859L12.7123 11.8711C12.8564 11.9645 13.042 11.9645 13.1861 11.8711L22.9492 5.52859V18.1373C22.9492 18.8577 22.3652 19.4417 21.6448 19.4417H4.25359C3.53328 19.4414 2.94922 18.8577 2.94922 18.1373ZM2.94922 5.11298L12.7998 11.592C12.8905 11.6517 13.008 11.6517 13.0986 11.592L22.9492 5.11298V4.9308L13.097 11.3339C13.007 11.3924 12.8908 11.3924 12.8008 11.3339L2.94922 4.9308V5.11298Z" fill="white"/>
</g>
<defs>
<clipPath id="clip0_197:995">
<rect width="20" height="14.8828" fill="white" transform="translate(2.94922 4.55859)"/>
</clipPath>
</defs>
</svg>
