<svg width="120" height="36" viewBox="0 0 120 36" fill="none" xmlns="http://www.w3.org/2000/svg">
<path fill-rule="evenodd" clip-rule="evenodd" d="M40.7074 0.0020385C37.6992 -0.0572112 34.9568 1.17916 32.9997 3.18427C31.0876 1.22528 28.4262 0.000163506 25.4997 0.000163506C22.5733 0.000163506 19.9119 1.22528 17.9998 3.18427C16.0228 1.15853 13.2444 -0.0823361 10.2002 0.00428849C4.83658 0.157288 0.373724 4.45402 0.0227258 9.80824C-0.276898 14.3746 2.41634 18.4066 6.32045 20.1222C8.29031 20.9881 10.4998 19.5218 10.4998 17.3701C10.4998 16.1581 9.75318 15.1021 8.64881 14.603C7.03707 13.8747 5.93083 12.2244 6.0032 10.3246C6.09132 8.00825 8.00832 6.09126 10.3247 6.00351C12.8897 5.90601 14.9998 7.9565 14.9998 10.5001V18.0001V36H20.9998V18.0001V10.6494C20.9998 8.17175 22.9381 6.04626 25.4154 6.00089C27.9395 5.95476 29.9997 7.98688 29.9997 10.5001V18.0001V36H35.9997V18.0001V10.6494C35.9997 8.17175 37.9381 6.04626 40.4153 6.00089C42.9394 5.95476 44.9997 7.98688 44.9997 10.5001V36H50.9996V10.7375C50.9996 4.97939 46.464 0.116038 40.7074 0.0020385ZM109.707 0.0020385C106.699 -0.0572112 103.957 1.17916 101.999 3.18427C100.087 1.22528 97.4259 0.000163506 94.4994 0.000163506C91.573 0.000163506 88.9116 1.22528 86.9995 3.18427C85.0225 1.15853 82.2441 -0.0823361 79.1999 0.00428849C73.8359 0.157288 69.3734 4.45364 69.0221 9.80824C68.7224 14.3746 71.4157 18.4066 75.3198 20.1222C77.29 20.9881 79.4995 19.5218 79.4995 17.3701C79.4995 16.1581 78.7529 15.1021 77.6485 14.603C76.0368 13.8747 74.9305 12.2244 75.0029 10.3246C75.091 8.00825 77.008 6.09126 79.3244 6.00351C81.8894 5.90601 83.9995 7.9565 83.9995 10.5001V18.0001V36H89.9995V18.0001V10.6494C89.9995 8.17175 91.9378 6.04626 94.4151 6.00089C96.9392 5.95476 98.9994 7.98688 98.9994 10.5001V18.0001V36H104.999V18.0001V10.6494C104.999 8.17175 106.938 6.04626 109.415 6.00089C111.939 5.95476 113.999 7.98688 113.999 10.5001V36H119.999V10.7375C119.999 4.97939 115.464 0.116038 109.707 0.0020385ZM62.9995 13.5001V36H56.9996V13.5001C56.9996 11.8434 58.3428 10.5001 59.9995 10.5001C61.6563 10.5001 62.9995 11.8434 62.9995 13.5001Z" fill="#383838"/>
<path d="M62.9995 3.00011C62.9995 1.34337 61.6562 0.00012207 59.9995 0.00012207C58.3428 0.00012207 56.9995 1.34337 56.9995 3.00011V5.98847H59.7711C59.8469 5.99409 59.9223 6.00009 59.9995 6.00009C60.0768 6.00009 60.1521 5.99409 60.2279 5.98847H62.9995V3.00011Z" fill="#DE5348"/>
</svg>
