<svg xmlns="http://www.w3.org/2000/svg" width="246" height="280" viewBox="0 0 246 280"><defs><style>.cls-1{fill:#fafaf9;}.cls-2{fill:#bebcbd;}.cls-3{fill:#fad52c;}.cls-4{fill:#ea992a;}.cls-5{fill:#692b1a;}.cls-6{fill:#5b5d5d;}.cls-7{fill:#ea992b;}.cls-8{fill:#53b6d4;}.cls-9{fill:#acdced;}.cls-10{fill:#fff;}.cls-11{fill:#b83122;}.cls-12{fill:#d1482e;}.cls-13{fill:#d18921;}.cls-14{fill:#2a2c2d;}.cls-15{fill:#231916;}.cls-16{fill:#eac83d;}.cls-17{fill:#f2da78;}</style></defs><g id="Layer_2" data-name="Layer 2"><g id="Layer_1-2" data-name="Layer 1"><rect class="cls-1" width="246" height="280"/><ellipse class="cls-2" cx="126.25" cy="218.99" rx="62.9" ry="7.37"/><path class="cls-3" d="M176.64,209a9.56,9.56,0,0,0,.68-3.61,39.68,39.68,0,0,1,.34-4.06c3.91-8.78,2.88-20.73,2.75-29.05-.16-10-2.08-20-3-27.46-2.08-17.32,3.44-11.1-.72-23.29-2.32-6.79-1.5-5.64-10.1-13.2.92-7.14,1.52-23.12-5.58-34.76-1.94-3.18-10.52-.25-12.89,3.4-5.72,8.79,7.93,21,3.26,28.72-8.7-.52-23.68-.76-31.68.78-1.87-8.16-11.76-26.88-19.09-31.21a8.76,8.76,0,0,0-3.26-1.09c-3.69-.37-8.13,1.92-9.32,5.13-.58,1.57.06,3.09,5.9,13.51a82.16,82.16,0,0,0,8.23,12.73c3.68,4.56,6,6.27,6.28,9.85.21,2.84-1.07,4.46-2.09,7.07-2.4,6.18-.82,11.41.16,17.55,2.63,16.49-2.53,18,.31,29.65.76,3.15,4.39,18.08,16.3,24.53,12.61,6.83,29.83,1.62,30.59,5.28.12.61-.36.75-.62,2-.68,3.23,1.4,7.29,4.31,9.57-.57,1.57-.52,3.73.5,6.71,1,2.83,16.07,2.74,19.31,2.74a5.64,5.64,0,0,0,5.85-5.41C183.09,213.19,179.82,210.61,176.64,209Z"/><polyline class="cls-3" points="52.03 103.7 47.58 107.06 73.3 139.42 72.46 155.36 79.12 138.34 52.03 103.7"/><polygon class="cls-4" points="84.3 170.84 66.26 164.18 64.72 149.88 36.06 129.56 40.38 117.29 45.32 109.03 48.37 105.84 74.78 138.93 72.25 156.88 89.56 164.18 84.3 170.84"/><polygon class="cls-5" points="102.58 179.53 103.71 186.88 88.85 186.46 83.13 169.79 89.49 164.18 89.69 172.31 91.74 176.97 96.51 179.53 102.58 179.53"/><path class="cls-6" d="M162.22,76.14a12.74,12.74,0,0,0-8.56-2.49,13,13,0,0,0-8.44,4.94c-.19-1.81-.34-3.68-.45-5.59a115.38,115.38,0,0,1,.58-19.5.22.22,0,0,1,.36-.13A66,66,0,0,1,162.22,76.14Z"/><path class="cls-6" d="M103.23,76.8A14.36,14.36,0,0,0,91,80.59a14,14,0,0,0-4,9,105.59,105.59,0,0,1-7.84-16.71c-1.77-4.85-3.69-10.29-4.35-14a.65.65,0,0,1,.84-.73c3.46,1.11,8.42,4,13.2,6.9A64.11,64.11,0,0,1,100,73.63Q101.72,75.24,103.23,76.8Z"/><path class="cls-4" d="M157.64,105.2a29.48,29.48,0,0,0-3.9-.24h-2.56a115.15,115.15,0,0,1-6-26.37,13.58,13.58,0,0,1,6.92-4.65c.37,1,.65,1.86.83,2.39C153.54,78,159.3,95.19,157.64,105.2Z"/><path class="cls-4" d="M109.53,115.92l-.87-.74a102.12,102.12,0,0,1-21.4-25.11c-.1-.16-.19-.32-.28-.48a14,14,0,0,1,3.84-8.83A67.65,67.65,0,0,1,98.05,89C103.89,97,108.83,108.15,109.53,115.92Z"/><path class="cls-7" d="M181.37,142.21c-5.54,5.73-16.36,9.62-28.81,9.62-18.08,0-32.73-8.21-32.73-18.32,0-7.7,8.47-14.28,20.48-17-9.48,3.06-15.89,8.87-15.89,15.54,0,9.85,14,17.83,31.26,17.83,9.48,0,18-2.4,23.69-6.2C180.08,143.21,180.74,142.72,181.37,142.21Z"/><path class="cls-8" d="M187,132.05c0,4.44-2.86,8.51-7.58,11.63-5.73,3.8-14.21,6.2-23.69,6.2-17.26,0-31.26-8-31.26-17.83,0-7,7-13,17.13-15.92a51.13,51.13,0,0,1,14.13-1.92,47.44,47.44,0,0,1,19.76,4C182.46,121.49,187,126.47,187,132.05Z"/><path class="cls-9" d="M187,132.05c0,4.44-2.86,8.51-7.58,11.63A51.14,51.14,0,0,1,166,145.41c-17.3,0-31.33-8.06-31.33-18,0-4.27,2.59-8.2,6.92-11.28a51.13,51.13,0,0,1,14.13-1.92,47.44,47.44,0,0,1,19.76,4C182.46,121.49,187,126.47,187,132.05Z"/><path class="cls-10" d="M159.67,120.62c.33-1.65,7-2.4,12.66.17,4.08,1.86,7.62,5.45,6.92,6.79-.86,1.64-7.63-.66-11.11-2C166.41,124.91,159.33,122.34,159.67,120.62Z"/><path class="cls-11" d="M134.63,158.43a6.68,6.68,0,0,1-.78,3.12,9.73,9.73,0,0,1-8.74,4.77c-5.26,0-9.52-3.53-9.52-7.89a7.36,7.36,0,0,1,3.28-6,10.63,10.63,0,0,1,6.24-1.93C130.36,150.55,134.63,154.07,134.63,158.43Z"/><path class="cls-11" d="M180.47,165.79a11.17,11.17,0,0,1-3.41.53c-5.26,0-9.52-3.53-9.52-7.89,0-3.08,2.13-5.75,5.25-7.05a11.4,11.4,0,0,1,5.92-.71c0,.26.1.52.14.78s.1.53.14.8c.22,1.26.43,2.54.61,3.87l.09.71c0,.27.07.53.1.8.08.67.16,1.34.23,2,0,.29,0,.57.08.85s.07.79.11,1.19c0,.55.08,1.1.12,1.67,0,.07,0,.15,0,.23l.06,1Z"/><path class="cls-12" d="M180.41,164.57c-.35,0-.71.05-1.07.05-5.14,0-9.31-3.47-9.31-7.74a7.16,7.16,0,0,1,2.76-5.5,11.4,11.4,0,0,1,5.92-.71c0,.26.1.52.14.78s.1.53.14.8c.22,1.26.43,2.54.61,3.87l.09.71c0,.27.07.53.1.8.08.67.16,1.34.23,2,0,.29,0,.57.08.85s.07.79.11,1.19c0,.55.08,1.1.12,1.67,0,.07,0,.15,0,.23Z"/><path class="cls-12" d="M134.63,158.43a6.68,6.68,0,0,1-.78,3.12,10.14,10.14,0,0,1-7,2.63c-5.14,0-9.31-3.46-9.31-7.74a6.7,6.7,0,0,1,1.32-4,10.63,10.63,0,0,1,6.24-1.93C130.36,150.55,134.63,154.07,134.63,158.43Z"/><path class="cls-13" d="M164.35,220.25H159.2a5.88,5.88,0,0,1-5.93-5.6c0-3.88,0-6,0-9.14l4.27-2.55c-.08,7.61.12,16.61,5.34,16.45C164.11,219.38,164.47,219.73,164.35,220.25Z"/><path class="cls-6" d="M156.06,73.68a10.72,10.72,0,0,0-2.4,0,13,13,0,0,0-8.44,4.94c-.19-1.81-.34-3.68-.45-5.59a115.56,115.56,0,0,1,.15-15,37.16,37.16,0,0,1,4.41,4.25A38.32,38.32,0,0,1,156.06,73.68Z"/><path class="cls-6" d="M97.61,77A13.59,13.59,0,0,0,91,80.59a14,14,0,0,0-4,9,105.59,105.59,0,0,1-7.84-16.71c-1.22-3.35-2.51-7-3.41-10.11a80.21,80.21,0,0,1,11.64,6.28A85.88,85.88,0,0,1,97.61,77Z"/><path class="cls-14" d="M156.06,73.68a10.72,10.72,0,0,0-2.4,0,13,13,0,0,0-8.44,4.94c-.19-1.81-.34-3.68-.45-5.59a115.56,115.56,0,0,1,.15-15,37.16,37.16,0,0,1,4.41,4.25A38.32,38.32,0,0,1,156.06,73.68Z"/><path class="cls-3" d="M98.31,166.59a12.33,12.33,0,0,1-3.57,1.24,13.84,13.84,0,0,1-5.25-.08V128.37a9.13,9.13,0,0,1,9.13-9.13h1.66c-.14,2.09-.57,4.63-.89,7.6C97.21,147.81,104,163.29,98.31,166.59Z"/><path class="cls-14" d="M97.61,77A13.59,13.59,0,0,0,91,80.59a14,14,0,0,0-4,9,105.59,105.59,0,0,1-7.84-16.71c-1.22-3.35-2.51-7-3.41-10.11a80.21,80.21,0,0,1,11.64,6.28A85.88,85.88,0,0,1,97.61,77Z"/><path class="cls-13" d="M105.81,119.24a17,17,0,0,0-2.53,8.26v52.34c-2.31.27-5.1.53-6.77-.31a5,5,0,0,1-.71-.44,66.21,66.21,0,0,1-5.27-4.45,9.16,9.16,0,0,1-1-4.23v-4.07c1.65,0,2.91,0,4.5,0,3.32-.08,3.66-1.86,3.66-4.61V127.45a48.11,48.11,0,0,1,1.15-8.21Z"/><path class="cls-13" d="M108.61,114.66c.23-.36,1.6-1.31.15,5.18a32.4,32.4,0,0,0-.44,6.14c0,6,0,18.11.24,31.15,0,1.74,0,5.86,0,7.81,0,7,6,15,11.27,20.08,3.49,3.35,14.52,11.62,28.49,12.23,3,.13,5.78,0,9.48.48.77.09,2.37.81,2.52,2.08a2.78,2.78,0,0,1-1.76,2.91c-7.1,3.32-17.7,4.14-18.36,4-6.07-1-9.81-1.73-9.81-1.73s-.54,3.38.29,5c.76,1.51,1.5,1.67,2,3.32a5.23,5.23,0,0,1-.06,4,4.37,4.37,0,0,1-3.32,2c-9.46.55-14.06,1.22-22,.05-1.36-.2-2-1.45-2.56-1.92-.39-.63-2.23-1.75-2.21-3.78.19-22,.66-73.06.66-87.57C103.28,125.83,107.89,115.82,108.61,114.66Z"/><path class="cls-15" d="M173.94,208.47a10.45,10.45,0,0,1,3.82.07,9.69,9.69,0,0,1,3.58,1.56,7.9,7.9,0,0,1,2.64,3.07,4.87,4.87,0,0,1,.48,2.2,4.41,4.41,0,0,1-.06.55c0,.18-.07.35-.11.53a7.49,7.49,0,0,1-.34,1,6.15,6.15,0,0,1-1.17,1.79,6,6,0,0,1-1.75,1.29,6.84,6.84,0,0,1-2,.61,8.91,8.91,0,0,1-1,.07c-.31,0-.61,0-.91,0l-7.27.06q-3.63,0-7.26,0h-2.73c-.3,0-.58,0-1,0a7.24,7.24,0,0,1-3.95-1.47,6.82,6.82,0,0,1-2.43-3.48,7.76,7.76,0,0,1-.2-1.07,5.21,5.21,0,0,1,0-.55v-2.27l-.12-7.26a1,1,0,0,1,1.94-.06h0q.15,3.63.26,7.27l0,1.83v.44a2.19,2.19,0,0,0,0,.36,3.34,3.34,0,0,0,.14.7,4.73,4.73,0,0,0,1.68,2.37,5,5,0,0,0,2.76,1h10.84l7.27,0c.3,0,.61,0,.9,0s.52,0,.78-.05a4.82,4.82,0,0,0,1.43-.41,4,4,0,0,0,2-2.06,4.26,4.26,0,0,0,.25-.71c0-.12.06-.24.08-.36a2.5,2.5,0,0,0,0-.35,2.87,2.87,0,0,0-.26-1.32,6.64,6.64,0,0,0-1.94-2.47,9,9,0,0,0-2.92-1.59,11.57,11.57,0,0,0-3.39-.55h0a.43.43,0,0,1-.41-.44A.42.42,0,0,1,173.94,208.47Z"/><path class="cls-15" d="M129.77,209.71l.37-4.79.06-.75.74.18a51.25,51.25,0,0,0,6.88,1.25,37.52,37.52,0,0,0,7,.11,35.72,35.72,0,0,0,6.86-1.2,41.86,41.86,0,0,0,6.6-2.43h0a.47.47,0,0,1,.63.23.48.48,0,0,1-.18.6A32,32,0,0,1,152.1,206a36.2,36.2,0,0,1-3.53,1,31.85,31.85,0,0,1-3.63.57,34.74,34.74,0,0,1-3.68.18,29.92,29.92,0,0,1-3.67-.29,26.26,26.26,0,0,1-7-2l.79-.56.37,4.79a1,1,0,1,1-1.94.15Z"/><path class="cls-15" d="M103.28,142.82h0V154h0A6.44,6.44,0,0,0,103.28,142.82Z"/><path class="cls-15" d="M123.74,208.3a12.81,12.81,0,0,1,2.7,0,11,11,0,0,1,2.7.55,9,9,0,0,1,2.5,1.35,7.82,7.82,0,0,1,1.9,2.19,7.23,7.23,0,0,1,.92,2.8c0,.26,0,.49,0,.77a3,3,0,0,1,0,.42,2,2,0,0,1-.08.42,3.94,3.94,0,0,1-.72,1.5,7.08,7.08,0,0,1-2.31,1.89,10.75,10.75,0,0,1-1.29.6,10.32,10.32,0,0,1-1.36.45l-.1,0h-.13l-16.12,0h-3a10.54,10.54,0,0,1-1.12-.08,7.49,7.49,0,0,1-2.23-.61,6,6,0,0,1-2-1.4,6.47,6.47,0,0,1-1.26-2,8.52,8.52,0,0,1-.34-1.12,7.15,7.15,0,0,1-.16-1.18v-4.06c0-10.75-.06-21.49,0-32.24V146.34l.05-16.12v-2a19.32,19.32,0,0,1,.08-2.12,17.1,17.1,0,0,1,1.06-4.15,23.1,23.1,0,0,1,1.89-3.75,26.09,26.09,0,0,1,2.42-3.39h0a1,1,0,0,1,1.48,1.25,24.39,24.39,0,0,0-2.23,3.17,22.14,22.14,0,0,0-1.71,3.45,14.79,14.79,0,0,0-.91,3.65,14.6,14.6,0,0,0-.06,1.9v2l0,16.12v32.24c0,10.75,0,21.49-.05,32.24v4a4.84,4.84,0,0,0,.1.81,5.44,5.44,0,0,0,.25.81,4.32,4.32,0,0,0,.85,1.38,4.69,4.69,0,0,0,2.93,1.39,8.87,8.87,0,0,0,.9.06c.3,0,.66,0,1,0h2l16.12,0-.22,0a7.76,7.76,0,0,0,3.92-2.19,2.24,2.24,0,0,0,.43-.82.87.87,0,0,0,.05-.22,1.6,1.6,0,0,0,0-.23,4.82,4.82,0,0,0,0-.53,5.71,5.71,0,0,0-.62-2.15,6.74,6.74,0,0,0-3.41-3,12.51,12.51,0,0,0-4.86-.92h0a.46.46,0,0,1,0-.92Z"/><path class="cls-15" d="M175.44,119.19a1,1,0,0,1-.86-.51,26.75,26.75,0,0,0-6.75-8.05,18.9,18.9,0,0,0-10.31-4.47,28,28,0,0,0-3.78-.23h-26a24.91,24.91,0,0,0-6.61,1.14,1,1,0,0,1-1.25-.59,1,1,0,0,1,.59-1.24,26.53,26.53,0,0,1,7.27-1.25h26a31.88,31.88,0,0,1,4,.24,20.8,20.8,0,0,1,11.32,4.92,28.85,28.85,0,0,1,7.2,8.61,1,1,0,0,1-.4,1.31A.92.92,0,0,1,175.44,119.19Z"/><path class="cls-15" d="M166.41,108.93a63.49,63.49,0,0,0,0-14.12,66,66,0,0,0-1.17-7c-.24-1.16-.56-2.29-.86-3.44s-.66-2.26-1.06-3.38a64.59,64.59,0,0,0-14.77-24c-.82-.85-1.67-1.67-2.54-2.48l-.66-.59-.08-.08,0,0a.22.22,0,0,0,.09.07.47.47,0,0,0,.46,0,.52.52,0,0,0,.16-.17.76.76,0,0,0,0-.11s0-.06,0,0v0l0,.22-.16,1.77c-.1,1.19-.23,2.36-.31,3.55s-.13,2.37-.17,3.56c-.08,2.37-.09,4.75,0,7.12,0,1.19.09,2.37.17,3.56l.13,1.77.16,1.78a113.22,113.22,0,0,0,2.26,14,115.13,115.13,0,0,0,4,13.63h0a1,1,0,1,1-1.82.66v0a115.66,115.66,0,0,1-3.81-13.93,116.35,116.35,0,0,1-2.12-14.27A121.6,121.6,0,0,1,144,62.67c.05-1.2.11-2.4.19-3.6s.22-2.4.33-3.59l.17-1.8,0-.23a.54.54,0,0,1,0-.11.58.58,0,0,1,.08-.22.83.83,0,0,1,.3-.34.88.88,0,0,1,.89-.05.59.59,0,0,1,.18.13l0,0,.09.08.66.6c.89.83,1.76,1.67,2.59,2.54a68.06,68.06,0,0,1,8.9,11.39c.33.5.63,1,.93,1.55s.62,1,.9,1.57l.86,1.6.79,1.62c.28.54.52,1.09.76,1.65s.5,1.1.73,1.66c.43,1.12.9,2.24,1.29,3.38a68,68,0,0,1,3.64,28.58,1,1,0,1,1-1.93-.16Z"/><path class="cls-15" d="M121.09,109.49a11.56,11.56,0,0,1-.91-2q-.18-.51-.33-1l-.33-1.05c-.46-1.39-1-2.78-1.49-4.14a69,69,0,0,0-3.72-8,69.52,69.52,0,0,0-4.66-7.47,79.32,79.32,0,0,0-5.56-6.86,87.89,87.89,0,0,0-6.26-6.25,61.9,61.9,0,0,0-6.92-5.48c-1.22-.82-2.47-1.58-3.75-2.35s-2.55-1.52-3.84-2.26-2.58-1.45-3.89-2.11c-.66-.34-1.32-.65-2-.94-.34-.15-.67-.29-1-.42a5.27,5.27,0,0,0-.51-.19l-.47-.17s-.09,0-.09.06l.07.38c0,.18.07.35.11.53.16.72.34,1.43.53,2.14.39,1.42.83,2.83,1.29,4.24.94,2.81,1.94,5.62,3,8.38s2.26,5.47,3.55,8.13a88.71,88.71,0,0,0,4.25,7.79,94.67,94.67,0,0,0,10.6,14.2,109.69,109.69,0,0,0,12.93,12.11.78.78,0,0,1-1,1.22h0a111,111,0,0,1-12.93-12.45A96.87,96.87,0,0,1,87.12,91a106.82,106.82,0,0,1-7.86-16.13c-1.06-2.8-2.06-5.59-3-8.43-.46-1.43-.91-2.85-1.31-4.3-.19-.73-.38-1.46-.54-2.2,0-.19-.08-.37-.11-.56l-.05-.28a1.27,1.27,0,0,1,0-.44,1.22,1.22,0,0,1,.53-.88,1.21,1.21,0,0,1,1-.19l.17,0,.13,0,.28.09.53.2c.36.13.71.28,1.06.43.7.3,1.38.62,2,1,1.35.67,2.67,1.38,4,2.11s2.6,1.49,3.88,2.24,2.58,1.53,3.83,2.36a62.48,62.48,0,0,1,7.15,5.49c2.25,2,4.43,4.06,6.48,6.25a83.06,83.06,0,0,1,5.78,6.92c.89,1.21,1.76,2.45,2.57,3.72s1.58,2.57,2.31,3.89a72.57,72.57,0,0,1,3.87,8.17c.56,1.39,1.08,2.81,1.55,4.24a16.55,16.55,0,0,1,1,4.42.66.66,0,0,1-.62.68.64.64,0,0,1-.59-.32Z"/><circle class="cls-15" cx="165.26" cy="149.38" r="3.29"/><path class="cls-15" d="M103.28,180.83H98.62a10.33,10.33,0,0,1-3.22-.51,10.43,10.43,0,0,1-7.2-9.91v-42A10.43,10.43,0,0,1,98.62,118h7.19v2.59H98.62a7.84,7.84,0,0,0-7.84,7.83v42a7.59,7.59,0,0,0,.9,3.62,7.8,7.8,0,0,0,6.94,4.21h4.66Z"/><path class="cls-15" d="M102.62,188.18H90.19a3,3,0,0,1-2.81-2L82.17,171a.28.28,0,0,0-.18-.17l-15.06-4.35a3.35,3.35,0,0,1-2.41-2.87l-1.21-11.78a1.43,1.43,0,0,0-.59-1L37.15,132.65a5.15,5.15,0,0,1-2.07-5.12,41.24,41.24,0,0,1,14.25-24.25,3,3,0,0,1,2.28-.7,3.11,3.11,0,0,1,2.1,1.15l26,32.78a3.91,3.91,0,0,1,.59,3.84l-5.87,15.22L90,162.62A1.29,1.29,0,1,1,89,165l-16.69-7.56a1.29,1.29,0,0,1-.67-1.64l6.32-16.36a1.35,1.35,0,0,0-.2-1.3l-26-32.78a.5.5,0,0,0-.7-.07A38.54,38.54,0,0,0,37.63,128a2.56,2.56,0,0,0,1,2.54L64.22,148.7a4,4,0,0,1,1.66,2.84l1.22,11.78a.75.75,0,0,0,.55.65l15.06,4.35a2.87,2.87,0,0,1,1.91,1.82l5.21,15.19a.38.38,0,0,0,.36.26h12.43a1.3,1.3,0,0,1,0,2.59Z"/><polygon class="cls-16" points="133.01 91.66 122.36 83.15 128.31 81.5 120.38 70.6 135.33 81.75 129.96 84.06 133.01 91.66"/><path class="cls-15" d="M133,92a.31.31,0,0,1-.2-.07l-10.65-8.5a.33.33,0,0,1-.12-.32.34.34,0,0,1,.23-.25l5.5-1.53-7.65-10.52a.32.32,0,0,1,.45-.45l15,11.15a.34.34,0,0,1,.13.3.36.36,0,0,1-.19.26l-5.08,2.18,2.93,7.31a.31.31,0,0,1-.1.38A.36.36,0,0,1,133,92Zm-9.95-8.68,9.2,7.34-2.6-6.46a.32.32,0,0,1,.17-.42l4.85-2.09-12.79-9.54,6.68,9.18a.32.32,0,0,1,0,.3.3.3,0,0,1-.22.2Z"/><polygon class="cls-16" points="32.03 167.7 41.41 157.8 42.55 163.86 54.08 156.88 41.72 170.84 39.86 165.29 32.03 167.7"/><path class="cls-15" d="M41.72,171.16h-.07a.32.32,0,0,1-.24-.21l-1.75-5.24L32.13,168a.32.32,0,0,1-.37-.14.32.32,0,0,1,0-.39l9.37-9.9a.34.34,0,0,1,.33-.09.31.31,0,0,1,.22.25l1.06,5.6,11.14-6.74a.32.32,0,0,1,.41.07.32.32,0,0,1,0,.42L42,171.05A.32.32,0,0,1,41.72,171.16ZM39.86,165a.33.33,0,0,1,.31.22l1.67,5,10.59-11.94-9.71,5.88a.35.35,0,0,1-.3,0,.28.28,0,0,1-.18-.24l-1-5.44L33.11,167,39.77,165Z"/><polygon class="cls-16" points="189.15 123.76 199.28 112.42 200.45 119.42 213.97 111.04 199.85 127.58 197.74 120.8 189.15 123.76"/><path class="cls-15" d="M199.85,127.9h-.06a.31.31,0,0,1-.25-.22l-2-6.46-8.27,2.86a.32.32,0,0,1-.38-.13.32.32,0,0,1,0-.39L199,112.21a.34.34,0,0,1,.34-.1.34.34,0,0,1,.22.26l1.1,6.52,13.1-8.12a.32.32,0,0,1,.42.06.33.33,0,0,1,0,.42L200.1,127.79A.33.33,0,0,1,199.85,127.9Zm-2.11-7.43a.33.33,0,0,1,.14,0,.3.3,0,0,1,.16.19l2,6.22,12.38-14.51-11.75,7.29a.32.32,0,0,1-.49-.23l-1.06-6.33-8.85,9.91,7.41-2.56Z"/><path class="cls-15" d="M73.39,70.33q.92,2.64,2,5.2c.36.86.72,1.71,1.11,2.55s.81,1.66,1.19,2.5c.74,1.7,1.47,3.39,2.25,5.07s1.58,3.35,2.39,5a.48.48,0,0,1-.82.49q-1.61-2.32-3-4.78c-.91-1.65-1.78-3.32-2.55-5-.38-.86-.69-1.75-1-2.64S74.31,76.93,74,76q-.9-2.67-1.65-5.39a.54.54,0,0,1,1-.32Z"/><ellipse class="cls-15" cx="185.29" cy="171.95" rx="0.74" ry="1.86"/><ellipse class="cls-15" cx="73.3" cy="172.31" rx="1.78" ry="6.61" transform="translate(-111.16 204.48) rotate(-76.85)"/><path class="cls-15" d="M176.79,209.32l-.22,0a1,1,0,0,1-.73-1.17,140.17,140.17,0,0,0,3.78-30.77c.1-4.16.06-7.93-.12-11.52q0-.6-.06-1.17v0a105.76,105.76,0,0,0-1.69-13.77c-.09-.5-.19-1-.29-1.47-.28-1.37-.59-2.77-1-4.3a1,1,0,0,1,1.88-.46c.38,1.56.7,3,1,4.36.1.5.21,1,.3,1.51a107.66,107.66,0,0,1,1.72,14v.05l.06,1.18c.18,3.64.22,7.46.12,11.67a142.19,142.19,0,0,1-3.83,31.16A1,1,0,0,1,176.79,209.32Z"/><path class="cls-15" d="M145.84,79.11l-1.24-1a13.72,13.72,0,0,1,9-5.23,13.47,13.47,0,0,1,9.1,2.63l-.93,1.32a11.88,11.88,0,0,0-8-2.34A12.18,12.18,0,0,0,145.84,79.11Z"/><path class="cls-15" d="M87.78,89.65,87,89.59h-.83v-.06A14.86,14.86,0,0,1,90.41,80a15.18,15.18,0,0,1,12.94-4l-.24,1.6a13.55,13.55,0,0,0-11.56,3.57A13.22,13.22,0,0,0,87.78,89.65Z"/><path class="cls-15" d="M119.4,220.17a5.69,5.69,0,0,0,.22-1.43,6.29,6.29,0,0,0-.14-1.48,7.3,7.3,0,0,0-1.31-2.81.18.18,0,0,1,0-.26.18.18,0,0,1,.24,0,7.85,7.85,0,0,1,2,2.75,7.21,7.21,0,0,1,.51,1.69,7.8,7.8,0,0,1,.06,1.81v0a.81.81,0,1,1-1.62-.15A.4.4,0,0,1,119.4,220.17Z"/><path class="cls-15" d="M126,219.92c0-.5,0-.92-.06-1.36a5.57,5.57,0,0,0-.25-1.33,11,11,0,0,0-1.29-2.62h0a.37.37,0,0,1,.11-.51.36.36,0,0,1,.43,0,7.77,7.77,0,0,1,2.13,2.54,6.27,6.27,0,0,1,.57,1.66,4.62,4.62,0,0,1,0,1.74h0a.82.82,0,0,1-1,.63A.81.81,0,0,1,126,219.92Z"/><path class="cls-15" d="M169.13,220.14c0-.49,0-1,0-1.45a8.93,8.93,0,0,0-.21-1.44c0-.24-.13-.47-.2-.71s-.16-.47-.26-.71a14.06,14.06,0,0,0-.71-1.39h0a.33.33,0,0,1,.12-.45.34.34,0,0,1,.35,0,6.52,6.52,0,0,1,2.64,4.52,5.29,5.29,0,0,1-.09,1.82.81.81,0,0,1-1.6-.18Z"/><path class="cls-15" d="M175.42,220a5.06,5.06,0,0,0,.2-2.82,5.92,5.92,0,0,0-1.38-2.66h0a.28.28,0,0,1,0-.39.29.29,0,0,1,.36,0,6.75,6.75,0,0,1,2,2.74,6.4,6.4,0,0,1,.41,1.74,6.47,6.47,0,0,1-.08,1.81v0a.81.81,0,0,1-1.6-.29Z"/><ellipse class="cls-17" cx="172.81" cy="188.89" rx="16.03" ry="2.73" transform="translate(-29.54 345.72) rotate(-85.32)"/><path class="cls-15" d="M155.68,150.85c-8.51,0-16.53-1.9-22.58-5.35-6.22-3.55-9.65-8.33-9.65-13.45,0-7.21,6.84-13.67,17.83-16.85a51.76,51.76,0,0,1,14.4-2,48.81,48.81,0,0,1,20.17,4.1c7.67,3.57,12.07,8.93,12.07,14.71,0,4.61-2.85,9-8,12.44C173.81,148.53,165,150.85,155.68,150.85Zm0-35.67a49.8,49.8,0,0,0-13.86,1.88c-10.13,2.94-16.42,8.68-16.42,15,0,9.3,13.58,16.86,30.28,16.86,8.92,0,17.36-2.2,23.16-6,4.6-3,7.13-6.89,7.13-10.82,0-5-4-9.71-10.94-13A46.83,46.83,0,0,0,155.68,115.18Z"/><path class="cls-15" d="M103.28,171.39h0v11.16h0A6.44,6.44,0,0,0,103.28,171.39Z"/><ellipse class="cls-10" cx="166.28" cy="147.89" rx="1.26" ry="0.73"/><path class="cls-15" d="M144.62,69c0,1,0,2,.1,3C144.67,70.94,144.64,70,144.62,69Z"/><path class="cls-15" d="M183.84,182.72c-.43,7-1.25,10.95.11,10.95.74,0,1.93-6.06,1.93-11s0-7-.73-7S184.15,177.76,183.84,182.72Z"/></g></g></svg>