<?xml version="1.0" encoding="utf-8"?>
<!-- Generator: Adobe Illustrator 25.2.1, SVG Export Plug-In . SVG Version: 6.00 Build 0)  -->
<svg version="1.1" id="Layer_1" xmlns="http://www.w3.org/2000/svg" xmlns:xlink="http://www.w3.org/1999/xlink" x="0px" y="0px"
	 width="49px" height="20px" viewBox="0 0 49 20" style="enable-background:new 0 0 49 20;" xml:space="preserve">
<style type="text/css">
	.st0{fill:#DE5348;}
</style>
<g>
	<path class="st0" d="M10,0C4.477,0,0,4.477,0,10s4.477,10,10,10h39V0H10z M14.875,14.324c-0.31,0.503-0.772,0.895-1.387,1.176
		c-0.755,0.354-1.667,0.531-2.734,0.531c-1.058,0-1.94-0.191-2.648-0.574c-0.708-0.383-1.224-0.928-1.547-1.637
		c-0.229-0.5-0.341-1.102-0.336-1.805H7.66c0.016,0.37,0.06,0.667,0.133,0.891c0.109,0.328,0.285,0.617,0.527,0.867
		s0.569,0.462,0.98,0.637c0.411,0.175,0.917,0.262,1.516,0.262c0.734,0,1.356-0.117,1.867-0.352
		c0.375-0.167,0.652-0.388,0.832-0.664c0.18-0.276,0.27-0.588,0.27-0.938c0-0.536-0.171-0.938-0.512-1.207
		c-0.341-0.268-0.905-0.501-1.691-0.699l-2.047-0.508C8.442,10.029,7.68,9.651,7.25,9.172C6.82,8.693,6.606,8.097,6.606,7.383
		c0-0.651,0.164-1.243,0.492-1.777c0.328-0.534,0.806-0.94,1.434-1.219c0.627-0.278,1.36-0.418,2.199-0.418
		c0.87,0,1.638,0.152,2.305,0.457c0.667,0.305,1.156,0.723,1.469,1.254s0.479,1.183,0.5,1.953h-1.438
		c-0.062-0.729-0.332-1.295-0.809-1.699c-0.477-0.403-1.163-0.605-2.059-0.605c-0.599,0-1.098,0.082-1.496,0.246
		S8.512,5.97,8.324,6.27c-0.188,0.3-0.281,0.616-0.281,0.949c0,0.396,0.129,0.726,0.387,0.988C8.688,8.47,9.21,8.698,9.996,8.891
		l2.289,0.562c1.192,0.292,2,0.693,2.422,1.203c0.422,0.511,0.633,1.151,0.633,1.922C15.34,13.24,15.185,13.822,14.875,14.324z
		 M18.582,13.812c0.391,0.62,0.961,0.93,1.711,0.93c0.542,0,0.999-0.161,1.371-0.484c0.372-0.323,0.618-0.805,0.738-1.445h1.344
		c-0.125,1.016-0.498,1.801-1.117,2.355C22.009,15.723,21.207,16,20.223,16c-0.583,0-1.085-0.097-1.504-0.289
		c-0.419-0.192-0.766-0.453-1.039-0.781s-0.486-0.685-0.637-1.07c-0.245-0.641-0.367-1.359-0.367-2.156
		c0-0.828,0.138-1.592,0.414-2.293c0.276-0.7,0.704-1.258,1.285-1.672c0.581-0.414,1.277-0.621,2.09-0.621
		c0.942,0,1.703,0.269,2.281,0.805c0.578,0.537,0.911,1.302,1,2.297h-1.344c-0.083-0.573-0.28-1.023-0.59-1.352
		c-0.31-0.328-0.757-0.492-1.34-0.492c-0.683,0-1.245,0.27-1.688,0.809c-0.443,0.539-0.664,1.4-0.664,2.582
		C18.121,12.641,18.275,13.323,18.582,13.812z M29.254,8.648c-0.245-0.026-0.417-0.039-0.516-0.039
		c-0.422,0-0.812,0.112-1.172,0.336c-0.359,0.224-0.625,0.521-0.797,0.891c-0.115,0.245-0.169,0.612-0.164,1.102v4.805h-1.422V7.375
		h1.422v1.383c0.245-0.557,0.566-0.97,0.965-1.238c0.398-0.268,0.806-0.402,1.223-0.402c0.125,0,0.278,0.016,0.461,0.047V8.648z
		 M36.934,13.305c-0.12,0.417-0.288,0.788-0.504,1.113c-0.216,0.326-0.479,0.608-0.789,0.848c-0.31,0.24-0.668,0.422-1.074,0.547
		S33.733,16,33.285,16c-0.776,0-1.456-0.171-2.039-0.512c-0.583-0.341-1.038-0.849-1.363-1.523c-0.326-0.674-0.488-1.478-0.488-2.41
		c0-1.333,0.337-2.406,1.012-3.219c0.674-0.812,1.634-1.219,2.879-1.219c0.781,0,1.474,0.18,2.078,0.539
		c0.604,0.359,1.056,0.882,1.355,1.566c0.299,0.685,0.449,1.462,0.449,2.332C37.168,12.169,37.09,12.753,36.934,13.305z
		 M40.223,15.742h-1.422V4.258h1.422V15.742z M43.777,15.742h-1.422V4.258h1.422V15.742z"/>
	<path class="st0" d="M33.285,8.375c-0.708,0-1.293,0.267-1.754,0.801c-0.461,0.534-0.691,1.327-0.691,2.379
		c0,1.058,0.23,1.853,0.691,2.387c0.461,0.534,1.045,0.801,1.754,0.801c0.703,0,1.286-0.267,1.75-0.801
		c0.463-0.534,0.695-1.329,0.695-2.387c0-1.057-0.232-1.852-0.695-2.383C34.571,8.641,33.988,8.375,33.285,8.375z"/>
</g>
</svg>
