<svg width="24" height="24" viewBox="0 0 24 24" fill="none" xmlns="http://www.w3.org/2000/svg">
<path d="M19.899 7.91017C19.9109 8.08485 19.9109 8.26033 19.9109 8.43654C19.9109 13.8182 15.8139 20.024 8.32339 20.024V20.0209C6.11049 20.0238 3.94347 19.3898 2.08105 18.1946C2.40275 18.2331 2.72646 18.2528 3.05049 18.2534C4.88468 18.2553 6.66614 17.64 8.10823 16.5067C6.36589 16.4739 4.83694 15.3375 4.30339 13.6784C4.91364 13.796 5.54275 13.7721 6.14226 13.6086C4.24202 13.2247 2.87549 11.555 2.87501 9.61646C2.87501 9.59896 2.87501 9.58154 2.87501 9.56485C3.44138 9.88057 4.07533 10.0554 4.72339 10.0746C2.93372 8.87952 2.38154 6.49896 3.46251 4.63815C5.53041 7.18235 8.5813 8.72896 11.8558 8.89315C11.5275 7.47888 11.9763 5.9967 13.034 5.00202C14.674 3.45968 17.2537 3.53888 18.7961 5.17888C19.7081 4.99904 20.5827 4.66477 21.3821 4.19033C21.0781 5.13339 20.4418 5.93396 19.5916 6.44291C20.399 6.34751 21.1874 6.13154 21.9307 5.80218C21.384 6.61985 20.696 7.33364 19.899 7.91017Z" fill="#BEBAB3"/>
</svg>
