<?xml version="1.0" encoding="utf-8"?>
<!-- Generator: Adobe Illustrator 25.2.1, SVG Export Plug-In . SVG Version: 6.00 Build 0)  -->
<svg version="1.1" id="Layer_1" xmlns="http://www.w3.org/2000/svg" xmlns:xlink="http://www.w3.org/1999/xlink" x="0px" y="0px"
	 width="32px" height="32px" viewBox="0 0 32 32" style="enable-background:new 0 0 32 32;" xml:space="preserve">
<style type="text/css">
	.st0{fill:#DE5549;}
	.st1{fill:#606060;}
</style>
<path class="st0" d="M16.4,7.7c-2.4,0-4.4,2.9-4.4,6.5v13h8.8v-13C20.8,10.7,18.8,7.7,16.4,7.7z"/>
<path class="st1" d="M25.5,4.7c-1.9,0-3.6,0.7-4.8,2c-1.2-1.2-2.9-2-4.7-2s-3.5,0.8-4.7,2c-1.2-1.3-3-2-4.9-2C3,4.8,0.2,7.5,0,10.9
	c-0.2,2.9,1.5,5.4,4,6.5c1.2,0.5,2.6-0.4,2.6-1.7v0c0-0.8-0.5-1.4-1.2-1.7c-1-0.5-1.7-1.5-1.7-2.7C3.8,9.7,5,8.5,6.5,8.5
	c1.6-0.1,2.9,1.2,2.9,2.8V16v11.3h3.8V16l0-4.6c0-1.6,1.2-2.9,2.8-2.9c1.6,0,2.9,1.2,2.9,2.8V16v11.3h3.8V16v-4.6
	c0-1.6,1.2-2.9,2.8-2.9c1.6,0,2.9,1.2,2.9,2.8v16H32V11.4C32,7.8,29.2,4.8,25.5,4.7z"/>
</svg>
